<svg width="56.000000" height="56.000000" viewBox="0 0 56 56" fill="none" xmlns="http://www.w3.org/2000/svg" xmlns:xlink="http://www.w3.org/1999/xlink">
	<desc>
			Created with Pixso.
	</desc>
	<defs>
		<clipPath id="clip6_1493">
			<rect id="shopping-cart 2" width="24.000000" height="24.000000" transform="translate(16.000000 16.000000)" fill="white" fill-opacity="0"/>
		</clipPath>
	</defs>
	<rect id="button / black / icon" rx="4.000000" width="56.000000" height="56.000000" fill="#202020" fill-opacity="1.000000"/>
	<rect id="shopping-cart 2" width="24.000000" height="24.000000" transform="translate(16.000000 16.000000)" fill="#FFFFFF" fill-opacity="0"/>
	<g clip-path="url(#clip6_1493)">
		<path id="Vector" d="M25 38C24.44 38 24 37.55 24 37C24 36.44 24.44 36 25 36C25.55 36 26 36.44 26 37C26 37.55 25.55 38 25 38Z" stroke="#FFFFFF" stroke-opacity="1.000000" stroke-width="2.000000" stroke-linejoin="round"/>
		<path id="Vector" d="M36 38C35.44 38 35 37.55 35 37C35 36.44 35.44 36 36 36C36.55 36 37 36.44 37 37C37 37.55 36.55 38 36 38Z" stroke="#FFFFFF" stroke-opacity="1.000000" stroke-width="2.000000" stroke-linejoin="round"/>
		<path id="Vector" d="M17 17L21 17L23.68 30.39C23.77 30.85 24.02 31.26 24.38 31.55C24.75 31.85 25.21 32 25.68 32L35.4 32C35.86 32 36.32 31.85 36.69 31.55C37.05 31.26 37.3 30.85 37.4 30.39L39 22L22 22" stroke="#FFFFFF" stroke-opacity="1.000000" stroke-width="2.000000" stroke-linejoin="round" stroke-linecap="round"/>
	</g>
</svg>
